<svg id="Capa_1" enable-background="new 0 0 510.979 510.979" height="512" viewBox="0 0 510.979 510.979" width="512" xmlns="http://www.w3.org/2000/svg"><g><path d="m510.979 63.479c0-55.99-68.127-83.969-107.547-44.548-8.913 8.912-14.826 20.026-17.232 32.114-11.765-9.319-28.955-8.554-39.821 2.312l-24.042 24.041c-5.667 5.666-8.788 13.2-8.788 21.214 0 9.806 4.058 16.482 10.202 22.628l-83.393 83.393c-16.637 16.635-8.464 45.153 14.466 50.446l39.068 9.016c.101 0 15.41 4.529 27.959-8.02l68.368-68.367c1.788 1.788 1.363 1.313 1.415 1.415 11.695 11.694 30.728 11.697 42.426-.001l24.04-24.042c11.091-11.09 11.493-28.304 2.283-39.862 28.905-5.761 50.596-31.157 50.596-61.739zm-210.341 171.383c-.101 0 1.881.435-39.064-9.02l83.39-83.39 24.042 24.042zm112.221-66.941c0-.14-69.186-69.185-69.31-69.31l24.042-24.042 69.296 69.297zm58.454-81.107c-20.659 20.659-56.334 5.985-56.334-23.335 0-18.319 14.833-32.984 33-32.984 29.417-.001 43.969 35.682 23.334 56.319z"/><path d="m199.979 382.479c34.311 0 63.931-37.257 35.539-85.264-19.528-33.015-51.552-33.009-71.077 0-7.069 11.953-11.461 26.615-11.461 38.264-.001 25.916 21.083 47 46.999 47zm-9.717-69.991c4.429-7.488 8.527-10.009 9.717-10.009s5.288 2.521 9.717 10.009c5.004 8.461 7.283 17.849 7.283 22.991 0 9.374-7.626 17-17 17s-17-7.626-17-17c0-5.143 2.279-14.53 7.283-22.991z"/><path d="m400.979 416.479h-370.979c-16.542 0-30 13.458-30 30v34c0 16.542 13.458 30 30 30h370.979c16.542 0 30-13.458 30-30v-34c0-16.542-13.458-30-30-30zm0 64h-370.979v-34h370.979c.019 34.753.1 34 0 34z"/></g></svg>