<svg id="Capa_1" enable-background="new 0 0 512 512" height="512" viewBox="0 0 512 512" width="512" xmlns="http://www.w3.org/2000/svg"><g><path d="m460.381 148.092c-13.981-42.733-40.595-79.484-76.962-106.282-37.119-27.353-81.18-41.81-127.419-41.81s-90.3 14.457-127.419 41.81c-36.368 26.798-62.98 63.549-76.961 106.281-6.29 19.224-3.078 39.655 8.812 56.056 9.888 13.639 24.293 22.428 40.497 25.028l40.071 90.982v176.843c0 8.284 6.716 15 15 15h200c8.284 0 15-6.716 15-15v-176.843l40.07-90.982c16.204-2.6 30.61-11.39 40.498-25.029 11.89-16.401 15.102-36.833 8.813-56.054zm-114.165 153.908h-39.521l10.771-73.394c13.313-2.838 25.472-9.929 34.542-20.408.222-.257.434-.518.649-.777 7.038 8.503 16.316 15.057 26.906 18.864zm-213.778-75.714c10.594-3.804 19.867-10.363 26.906-18.867.217.259.427.522.648.778 9.071 10.479 21.229 17.571 34.542 20.408l10.771 73.395h-39.521zm103.188 75.714-10.909-74.343c12.362-3.456 23.205-10.571 31.284-20.109 8.079 9.538 18.922 16.653 31.284 20.109l-10.911 74.343zm93.699-113.437c-6.384 7.375-15.27 11.437-25.023 11.437-18.363 0-33.302-14.939-33.302-33.302v-133.545c30.402 12.766 56.816 63.176 66.254 128.553 1.319 9.725-1.558 19.497-7.929 26.857zm-88.325-155.41v133.545c0 18.363-14.939 33.302-33.302 33.302-9.753 0-18.64-4.062-25.024-11.437-6.378-7.369-9.255-17.155-7.924-26.889 9.443-65.362 35.853-115.757 66.25-128.521zm-156.279 153.385c-6.181-8.526-7.854-19.139-4.588-29.118 17.23-52.662 56.301-93.385 105.279-113.524-1.89 2.709-3.734 5.536-5.53 8.478-18.68 30.597-31.68 72.928-36.604 119.194-1.726 16.209-15.568 28.433-32.2 28.433-10.548-.001-20.155-4.908-26.357-13.463zm256.279 295.462h-170v-150h170zm86.279-295.463c-6.202 8.556-15.808 13.463-26.356 13.463-16.632 0-30.475-12.224-32.199-28.433-4.925-46.267-17.924-88.598-36.604-119.194-1.796-2.941-3.641-5.769-5.53-8.478 48.978 20.14 88.049 60.862 105.279 113.525 3.264 9.979 1.592 20.592-4.59 29.117z"/><path d="m226 422h15v15c0 8.284 6.716 15 15 15s15-6.716 15-15v-15h15c8.284 0 15-6.716 15-15s-6.716-15-15-15h-15v-15c0-8.284-6.716-15-15-15s-15 6.716-15 15v15h-15c-8.284 0-15 6.716-15 15s6.716 15 15 15z"/></g></svg>