<?xml version="1.0"?>
<svg xmlns="http://www.w3.org/2000/svg" id="Capa_1" enable-background="new 0 0 512 512" height="512px" viewBox="0 0 512 512" width="512px" class=""><g><g><path d="m351.435 139.353-212.132 213.131c-5.844 5.872-5.822 15.369.05 21.213 5.87 5.842 15.367 5.824 21.213-.05l212.132-213.132c5.844-5.872 5.822-15.369-.05-21.213s-15.37-5.822-21.213.051z" data-original="#000000" class="active-path" data-old_color="#000000" fill="#3880FF"/><path d="m256 0c-140.959 0-256 115.05-256 256 0 140.959 115.05 256 256 256 140.959 0 256-115.05 256-256 0-140.959-115.05-256-256-256zm0 482c-124.617 0-226-101.383-226-226s101.383-226 226-226 226 101.383 226 226-101.383 226-226 226z" data-original="#000000" class="active-path" data-old_color="#000000" fill="#3880FF"/></g></g> </svg>
